<svg xmlns="http://www.w3.org/2000/svg" width="1600" height="1000" viewBox="0 0 1600 1000"><rect width="1600" height="1000" fill="#d9dad4"/><text x="78" y="83" fill="#343934" font-size="16" letter-spacing="5" font-family="Arial">PIXEL RICE / PORTFOLIO ARTWORK</text><g transform="translate(740 135) rotate(18 300 360)" fill="none" stroke="#8e948c" stroke-width="2"><rect x="0" y="0" width="530" height="530" rx="0"/><rect x="13" y="13" width="530" height="530" rx="3"/><rect x="26" y="26" width="530" height="530" rx="6"/><rect x="39" y="39" width="530" height="530" rx="9"/><rect x="52" y="52" width="530" height="530" rx="12"/><rect x="65" y="65" width="530" height="530" rx="15"/><rect x="78" y="78" width="530" height="530" rx="18"/><rect x="91" y="91" width="530" height="530" rx="21"/><rect x="104" y="104" width="530" height="530" rx="24"/><rect x="117" y="117" width="530" height="530" rx="27"/><rect x="130" y="130" width="530" height="530" rx="30"/><rect x="143" y="143" width="530" height="530" rx="33"/></g><path d="M800 238h220v80H880v410h-80z" fill="#313b35"/><path d="M1070 360h180v420h-80V440h-100z" fill="#7b857b"/><circle cx="980" cy="558" r="90" fill="#b7382c"/><circle cx="980" cy="558" r="52" fill="#d9dad4"/><text x="75" y="708" fill="#343934" font-size="32" letter-spacing="7" font-family="Arial">PRECISION, REIMAGINED.</text><text x="68" y="855" fill="#343934" font-size="139" letter-spacing="-5" font-family="Arial" font-weight="bold">KAO MING</text><path d="M80 902h1440" stroke="#343934"/><text x="80" y="942" fill="#343934" font-size="18" letter-spacing="3" font-family="Arial">DIGITAL SHOWROOM · EN / 繁中</text></svg>